Coordinates
version=1
nRows=21
nColumns=12
inDegrees=yes

Units are S.I. units (second, meters, Newtons, ...)
Angles are in degrees

endheader
time	SC_y	SC_z	SC_x	AC_y	AC_z	AC_x	GH_y	GH_z	GH_yy	EL_x	PS_y
       0.0              -31.79          23.35          20.67           38.8         -18.02         -2.627         -3.221          5.766          -6.61          10.66          34.62
   0.01802              -31.79          23.35          20.67           38.8         -18.02         -2.629         -3.243           5.77         -6.606          10.67          34.63
   0.03605              -31.78          23.35          20.67           38.8         -18.01         -2.631         -3.266          5.773         -6.602          10.67          34.65
   0.05407              -31.78          23.34          20.68           38.8         -18.01         -2.633          -3.29          5.777         -6.597          10.68          34.66
   0.07209              -31.78          23.34          20.68          38.81         -18.01         -2.635         -3.316          5.781         -6.592          10.68          34.68
   0.09012              -31.78          23.34          20.68          38.81         -18.01         -2.638         -3.343          5.785         -6.587          10.69           34.7
    0.1081              -31.77          23.33          20.68          38.81         -18.01          -2.64         -3.373           5.79         -6.581           10.7          34.72
    0.1262              -31.77          23.33          20.69          38.82         -18.01         -2.643         -3.404          5.794         -6.575          10.71          34.74
    0.1442              -31.76          23.33          20.69          38.82         -18.01         -2.646         -3.438          5.799         -6.568          10.71          34.76
    0.1622              -31.76          23.32          20.69          38.82          -18.0         -2.649         -3.474          5.805         -6.561          10.72          34.78
    0.1802              -31.76          23.32           20.7          38.83          -18.0         -2.652         -3.513          5.811         -6.554          10.73          34.81
    0.1983              -31.75          23.31           20.7          38.83          -18.0         -2.656         -3.555          5.817         -6.546          10.74          34.84
    0.2163              -31.75          23.31           20.7          38.83          -18.0          -2.66           -3.6          5.824         -6.537          10.75          34.86
    0.2343              -31.74           23.3          20.71          38.84          -18.0         -2.664         -3.648          5.832         -6.528          10.77           34.9
    0.2523              -31.73          23.29          20.71          38.84         -17.99         -2.669         -3.701           5.84         -6.518          10.78          34.93
    0.2704              -31.73          23.29          20.72          38.85         -17.99         -2.674         -3.758          5.848         -6.506          10.79          34.97
    0.2884              -31.72          23.28          20.72          38.86         -17.99         -2.679          -3.82          5.858         -6.494          10.81          35.01
    0.3064              -31.71          23.27          20.73          38.86         -17.99         -2.685         -3.888          5.868         -6.481          10.82          35.05
    0.3244               -31.7          23.26          20.74          38.87         -17.98         -2.692         -3.962          5.879         -6.467          10.84           35.1
    0.3424               -31.7          23.25          20.74          38.88         -17.98         -2.699         -4.042          5.892         -6.452          10.86          35.15
    0.3605              -31.69          23.24          20.75          38.89         -17.97         -2.706         -4.131          5.905         -6.434          10.88          35.21
